<svg viewBox="0 0 512 512" xmlns="http://www.w3.org/2000/svg">
  <path fill="#60A5FA" d="M169.9 19.76C109.8 19.4 56.01 32.11 26.37 60.2c-1.81 1.71-3.56 3.39-5.27 5.05V491.9h35.92c-17.04-44.3-24.83-95.2-22.74-134.1 15.94 37.1 29.87 91.8 57.44 134.1h58.18c-28.4-36.1-54.81-80.2-76.19-119.5-6.47-11.9-11.98-24.2-16.52-39.1 23.69 47.6 98.31 119.3 144.41 158.6h47.9c-18.8-15.2-30.3-33.4-39.1-49.3 23.1 20.3 49.9 36.6 80.1 49.3h70.6c-6.9-2.1-14.1-4.3-21.6-6.8-80.6-26.6-171-95-215.1-140.5-3.8-3.8-6.4-8.4-7.2-13.3-.8-5 .4-10 2.7-14 4.6-7.9 12.4-12.9 21.3-16.7 8.9-3.8 19.2-6.4 29.4-6.9s20.4 1.2 29.1 5.9c2 1.1 4 2.2 6.1 3.3-35.9-90.1.5-169 137-160.5-8.9-4.8-17.7-9.1-26.2-13l-97 11.5s43-18 62.5-25c-7.3-2.3-14.3-4.4-21.2-6-67.5 10.2-140 69.4-164.24 134.1-3.66-26.7 1.12-97.2 99.14-140.3-41 3.1-72.8 20.1-95.5 45.3-29.16 32.4-53.97 79.7-55.77 126.1-5.74-53 7.68-103.5 42.45-138C125.2 99.19 170 84.29 214.6 85.45 263.5 86.8 321.3 105.5 365.4 138c44.1 32.4 57.2 57.2 72.7 69.7 1.8-16.6-5-34.8-17.2-53.1 14.2 3.4 29 7.3 44.7 12.1-8.3-32.7-33-60.8-67-83.4 23.2 4.45 41.7 7.77 45.2.49-15.8-22.75-63.6-51.55-129.9-40.3-46.2-15.15-97-23.44-144-23.73z"></path>
</svg> 